<svg width="343" height="75" viewBox="0 0 343 75" fill="none" xmlns="http://www.w3.org/2000/svg">
<path d="M115.222 60.5V15.7127H124.54V35.0704H141.974V15.7127H151.292V60.5H141.974V43.1862H124.54V60.5H115.222ZM178.671 61.2214C175.304 61.2214 172.178 60.6403 169.292 59.478C166.407 58.3157 163.882 56.6926 161.718 54.6085C159.593 52.4844 157.93 50.0196 156.728 47.2141C155.525 44.4086 154.924 41.3627 154.924 38.0763C154.924 34.7899 155.505 31.7439 156.668 28.9385C157.87 26.133 159.533 23.6882 161.657 21.6042C163.822 19.5201 166.347 17.8969 169.232 16.7347C172.118 15.5724 175.264 14.9913 178.671 14.9913C182.077 14.9913 185.223 15.5724 188.109 16.7347C190.995 17.8969 193.499 19.5201 195.624 21.6042C197.788 23.6882 199.451 26.133 200.613 28.9385C201.816 31.7439 202.417 34.7899 202.417 38.0763C202.417 41.3627 201.816 44.4086 200.613 47.2141C199.411 50.0196 197.728 52.4844 195.564 54.6085C193.439 56.6926 190.934 58.3157 188.049 59.478C185.163 60.6403 182.037 61.2214 178.671 61.2214ZM178.671 52.805C180.715 52.805 182.598 52.4443 184.322 51.7229C186.085 51.0015 187.628 49.9995 188.951 48.717C190.273 47.3944 191.295 45.8314 192.017 44.0279C192.738 42.2244 193.099 40.2405 193.099 38.0763C193.099 35.9121 192.738 33.9482 192.017 32.1848C191.295 30.3813 190.273 28.8182 188.951 27.4956C187.628 26.1731 186.085 25.1711 184.322 24.4898C182.598 23.7684 180.715 23.4077 178.671 23.4077C176.627 23.4077 174.723 23.7684 172.959 24.4898C171.236 25.1711 169.713 26.1731 168.391 27.4956C167.068 28.8182 166.046 30.3813 165.325 32.1848C164.603 33.9482 164.242 35.9121 164.242 38.0763C164.242 40.2405 164.603 42.2244 165.325 44.0279C166.046 45.8314 167.068 47.3944 168.391 48.717C169.713 49.9995 171.236 51.0015 172.959 51.7229C174.723 52.4443 176.627 52.805 178.671 52.805ZM206.02 60.5V15.7127H213.174L237.221 47.3944L233.373 48.2962V15.7127H242.691V60.5H235.477L211.851 28.5778L215.338 27.676V60.5H206.02ZM269.154 61.2214C265.948 61.2214 262.962 60.6403 260.197 59.478C257.431 58.3157 255.006 56.6926 252.922 54.6085C250.838 52.5244 249.215 50.0797 248.053 47.2742C246.891 44.4687 246.309 41.4028 246.309 38.0763C246.309 34.7498 246.871 31.6838 247.993 28.8783C249.115 26.0328 250.698 23.588 252.742 21.544C254.786 19.46 257.171 17.8569 259.896 16.7347C262.661 15.5724 265.667 14.9913 268.914 14.9913C272.16 14.9913 275.066 15.5323 277.631 16.6144C280.236 17.6965 282.44 19.1394 284.243 20.9429C286.047 22.7464 287.329 24.7503 288.091 26.9546L279.855 30.9223C279.093 28.7581 277.751 26.9746 275.827 25.5719C273.943 24.1291 271.639 23.4077 268.914 23.4077C266.268 23.4077 263.944 24.0289 261.94 25.2713C259.936 26.5137 258.373 28.2371 257.251 30.4414C256.169 32.6056 255.628 35.1506 255.628 38.0763C255.628 41.002 256.209 43.567 257.371 45.7713C258.533 47.9756 260.116 49.6989 262.12 50.9414C264.164 52.1838 266.509 52.805 269.154 52.805C271.198 52.805 273.102 52.4243 274.865 51.6628C276.669 50.8612 278.111 49.719 279.194 48.2361C280.316 46.7532 280.877 44.9697 280.877 42.8857V39.1584L285.145 42.7654H268.914V34.9502H290.195V39.6994C290.195 43.3466 289.594 46.5328 288.392 49.2581C287.189 51.9433 285.566 54.1877 283.522 55.9912C281.518 57.7546 279.254 59.0772 276.729 59.9589C274.244 60.8006 271.719 61.2214 269.154 61.2214ZM315.367 61.2214C312 61.2214 308.874 60.6403 305.989 59.478C303.103 58.3157 300.578 56.6926 298.414 54.6085C296.29 52.4844 294.626 50.0196 293.424 47.2141C292.222 44.4086 291.62 41.3627 291.62 38.0763C291.62 34.7899 292.202 31.7439 293.364 28.9385C294.566 26.133 296.229 23.6882 298.354 21.6042C300.518 19.5201 303.043 17.8969 305.928 16.7347C308.814 15.5724 311.96 14.9913 315.367 14.9913C318.773 14.9913 321.92 15.5724 324.805 16.7347C327.691 17.8969 330.196 19.5201 332.32 21.6042C334.484 23.6882 336.147 26.133 337.31 28.9385C338.512 31.7439 339.113 34.7899 339.113 38.0763C339.113 41.3627 338.512 44.4086 337.31 47.2141C336.107 50.0196 334.424 52.4844 332.26 54.6085C330.136 56.6926 327.631 58.3157 324.745 59.478C321.859 60.6403 318.733 61.2214 315.367 61.2214ZM315.367 52.805C317.411 52.805 319.294 52.4443 321.018 51.7229C322.781 51.0015 324.324 49.9995 325.647 48.717C326.969 47.3944 327.991 45.8314 328.713 44.0279C329.434 42.2244 329.795 40.2405 329.795 38.0763C329.795 35.9121 329.434 33.9482 328.713 32.1848C327.991 30.3813 326.969 28.8182 325.647 27.4956C324.324 26.1731 322.781 25.1711 321.018 24.4898C319.294 23.7684 317.411 23.4077 315.367 23.4077C313.323 23.4077 311.419 23.7684 309.656 24.4898C307.932 25.1711 306.409 26.1731 305.087 27.4956C303.764 28.8182 302.742 30.3813 302.021 32.1848C301.299 33.9482 300.939 35.9121 300.939 38.0763C300.939 40.2405 301.299 42.2244 302.021 44.0279C302.742 45.8314 303.764 47.3944 305.087 48.717C306.409 49.9995 307.932 51.0015 309.656 51.7229C311.419 52.4443 313.323 52.805 315.367 52.805Z" fill="white"/>
<ellipse opacity="0.25" cx="50.1564" cy="42.5" rx="32.1252" ry="32" fill="white"/>
<path d="M50.9632 0.5V19.0402M28.2344 8.21159L41.3927 21.3215M74.4127 8.21153L61.2544 21.3215" stroke="white" stroke-width="4.40861"/>
<path d="M0.699414 36.6287V36.745L0.777743 36.831L2.91656 39.18C2.91827 39.2042 2.9203 39.2324 2.92269 39.2644C2.93195 39.3881 2.9466 39.5694 2.96825 39.8011C3.01155 40.2644 3.08286 40.9293 3.19509 41.7385C3.41945 43.3561 3.80783 45.5537 4.4642 47.8705C5.12014 50.1857 6.04667 52.6306 7.35192 54.7367C8.6568 56.8421 10.3515 58.6267 12.5499 59.5904C16.8836 61.5057 22.206 62.1156 26.963 61.6532C31.7048 61.1922 35.9641 59.6569 38.1083 57.2C38.4982 56.7583 38.8607 56.3547 39.2 55.9768C40.6471 54.365 41.6743 53.2209 42.6249 51.5944C43.7972 49.5886 44.8528 46.8535 46.493 41.5871L46.4971 41.5779C46.504 41.5624 46.515 41.5386 46.5299 41.5076C46.5597 41.4457 46.6055 41.3553 46.6676 41.245C46.792 41.024 46.9804 40.7258 47.2354 40.4182C47.7408 39.8089 48.4871 39.1867 49.4963 39.0211C50.4775 39.1865 51.2243 39.808 51.7383 40.4197C51.9974 40.7281 52.1914 41.027 52.3204 41.2487C52.3847 41.3593 52.4325 41.4501 52.4638 41.5123C52.4795 41.5434 52.491 41.5673 52.4984 41.5829L52.5017 41.59C54.1411 46.8538 55.1823 49.5879 56.3397 51.593C57.2952 53.2483 58.3297 54.4035 59.8135 56.0604C60.1302 56.4142 60.4675 56.7908 60.8288 57.2C62.973 59.6569 67.2323 61.1922 71.9741 61.6532C76.7313 62.1156 82.0539 61.5057 86.3876 59.5902C88.5859 58.6265 90.2804 56.842 91.5852 54.7367C92.8904 52.6306 93.817 50.1857 94.4729 47.8705C95.1293 45.5537 95.5177 43.3561 95.742 41.7385C95.8542 40.9293 95.9256 40.2644 95.9688 39.8011C95.9905 39.5694 96.0051 39.3881 96.0144 39.2644C96.0168 39.2324 96.0188 39.2042 96.0205 39.18L98.1594 36.831L98.2377 36.745V36.6287V29.2358V29.015L98.0271 28.9489C94.3803 27.8048 87.1014 27.1715 78.9734 27.3198C70.8441 27.468 61.8176 28.399 54.6486 30.4079C52.1245 30.7392 46.8698 30.7393 44.2883 30.4078C36.8643 28.3143 27.7523 27.4116 19.6438 27.2986C11.5364 27.1856 4.38592 27.8616 0.910258 28.9489L0.699414 29.0148V29.2358V36.6287ZM90.7421 37.2376L90.7423 37.2383C91.9325 40.5467 91.8139 45.2 90.3388 49.2879C88.8641 53.3742 86.0618 56.8263 81.9464 57.838C77.7013 58.846 73.3595 59.0516 69.6419 58.1901C65.9279 57.3294 62.8537 55.4093 61.0919 52.1737L61.0915 52.1729C59.2651 48.8423 58.1468 45.4509 57.8121 42.5899C57.4751 39.7081 57.9409 37.45 59.1658 36.2818L59.1806 36.2677L59.193 36.2521L59.1931 36.252L59.1932 36.2519L59.1934 36.2516L59.1936 36.2514L59.198 36.246C59.1999 36.2437 59.2025 36.2407 59.2055 36.237C59.2093 36.2326 59.2139 36.2272 59.2193 36.2209C59.2393 36.1979 59.2706 36.1626 59.3138 36.1168C59.4002 36.025 59.5342 35.8908 59.7195 35.727C60.0901 35.3993 60.6664 34.9532 61.4792 34.4916C63.1034 33.5691 65.6789 32.5806 69.4572 32.3575L69.4593 32.3574C69.9217 32.3269 70.3967 32.2939 70.8817 32.2602C74.4538 32.0118 78.5686 31.7256 82.1735 32.1444C86.2808 32.6216 89.586 33.997 90.7421 37.2376ZM39.7419 36.2493L39.7421 36.2496L39.7422 36.2497L39.7423 36.2499L39.7554 36.2667L39.7714 36.2818C40.9963 37.4501 41.4621 39.7083 41.132 42.5906C40.8043 45.4516 39.7001 48.8427 37.9022 52.173C36.112 55.4094 33.0231 57.3294 29.3093 58.1901C25.5915 59.0516 21.2639 58.8459 17.0474 57.838C12.9035 56.8263 10.1013 53.3741 8.63391 49.2883C7.1659 45.2009 7.06106 40.5474 8.25143 37.2383L8.2517 37.2376C9.40782 33.997 12.7131 32.6216 16.8132 32.1444C20.417 31.725 24.5268 32.0126 28.0804 32.2612C28.557 32.2946 29.0236 32.3272 29.4777 32.3574L29.48 32.3575C33.2869 32.5806 35.8622 33.5692 37.4787 34.4913C38.2876 34.9527 38.8583 35.3986 39.2243 35.7258C39.4073 35.8895 39.5392 36.0235 39.6241 36.115C39.6665 36.1608 39.6972 36.196 39.7167 36.2189C39.7264 36.2303 39.7333 36.2387 39.7375 36.2439L39.7417 36.2491L39.7419 36.2493Z" fill="white" stroke="white" stroke-width="0.601172"/>
</svg>
